<?xml version="1.0" encoding="UTF-8" standalone="no"?>
<!-- Created with Inkscape (http://www.inkscape.org/) -->

<svg
   width="210mm"
   height="297mm"
   viewBox="0 0 210 297"
   version="1.1"
   id="svg1"
   xml:space="preserve"
   inkscape:version="1.4.2 (f4327f4, 2025-05-13)"
   sodipodi:docname="Kinneret Outline.svg"
   xmlns:inkscape="http://www.inkscape.org/namespaces/inkscape"
   xmlns:sodipodi="http://sodipodi.sourceforge.net/DTD/sodipodi-0.dtd"
   xmlns="http://www.w3.org/2000/svg"
   xmlns:svg="http://www.w3.org/2000/svg"><sodipodi:namedview
     id="namedview1"
     pagecolor="#ffffff"
     bordercolor="#000000"
     borderopacity="0.25"
     inkscape:showpageshadow="2"
     inkscape:pageopacity="0.0"
     inkscape:pagecheckerboard="0"
     inkscape:deskcolor="#d1d1d1"
     inkscape:document-units="mm"
     inkscape:zoom="0.3061451"
     inkscape:cx="96.359538"
     inkscape:cy="659.81786"
     inkscape:window-width="1280"
     inkscape:window-height="730"
     inkscape:window-x="-6"
     inkscape:window-y="-6"
     inkscape:window-maximized="1"
     inkscape:current-layer="layer2" /><defs
     id="defs1"><inkscape:path-effect
       effect="bspline"
       id="path-effect1"
       is_visible="true"
       lpeversion="1.3"
       weight="33.333333"
       steps="2"
       helper_size="0"
       apply_no_weight="true"
       apply_with_weight="true"
       only_selected="false"
       uniform="false" /></defs><g
     inkscape:groupmode="layer"
     id="layer2"
     inkscape:label="Layer 2"><path
       style="fill:#0000ff;stroke-width:0.264583;fill-opacity:0;stroke:#000000;stroke-opacity:0.56626505"
       d="m 66.402564,86.964313 c -0.792221,1.404392 -2.376664,4.213178 -4.249209,7.490131 -1.872545,3.276953 -4.033129,7.021966 -6.078842,10.788186 -2.045714,3.76622 -3.889056,7.382 -5.422931,10.59436 -1.533875,3.21235 -2.758207,6.02111 -3.469884,8.25476 -0.711677,2.23364 -0.936253,4.10511 -0.976521,5.97714 -0.04027,1.87203 0.10377,3.74452 0.391855,5.32897 0.288085,1.58446 0.720197,2.8808 1.332375,4.21319 0.612179,1.33238 1.404382,2.70073 2.016558,3.52897 0.612176,0.82823 1.044291,1.11631 1.836524,2.12461 0.792233,1.0083 1.944533,2.73675 2.592714,3.67301 0.64818,0.93626 0.79222,1.0803 0.972271,1.26035 0.180051,0.18005 0.396109,0.39611 1.260367,0.57616 0.864257,0.18005 2.376665,0.32409 3.288089,0.4582 0.911424,0.13411 1.296349,0.28808 1.560839,0.86922 0.26449,0.58114 0.408529,1.58941 0.480548,2.2736 0.07202,0.68419 0.07202,1.04428 0.429822,1.74115 0.357802,0.69688 0.972264,1.58443 1.6036,2.56839 0.631336,0.98395 1.279504,2.06423 1.675616,3.54066 0.396111,1.47643 0.540148,3.34892 0.837175,5.55796 0.297027,2.20904 0.747026,4.75452 1.288666,7.05025 0.54164,2.29573 1.218048,4.48105 1.938211,6.21032 0.720162,1.72927 1.484035,3.00239 2.400712,4.19916 0.916677,1.19677 1.986102,2.31712 3.208338,3.64121 1.222236,1.32409 2.597209,2.85184 3.819441,4.4051 1.222232,1.55325 2.291666,3.13194 3.340156,4.8999 1.04849,1.76796 2.138876,3.84488 3.015102,6.05468 0.876227,2.2098 1.538257,4.55237 1.966731,6.84443 0.428473,2.29205 0.636569,4.68515 0.778813,5.98994 0.142244,1.30478 0.218634,1.52122 0.244095,3.51373 0.02546,1.99251 -2e-6,5.76096 0.630219,8.89929 0.630221,3.13834 1.916074,5.64639 3.256031,7.82665 1.339957,2.18027 2.733926,4.03261 4.110633,5.39994 1.376707,1.36733 2.736056,2.24955 3.924402,2.79421 1.18834,0.54465 2.20561,0.75171 3.36886,0.83578 1.16325,0.0841 2.47242,0.0452 3.71267,-0.16528 1.24026,-0.21043 2.41154,-0.59237 3.82475,-1.1271 1.41321,-0.53472 3.06829,-1.22222 4.40531,-1.98847 1.33703,-0.76625 2.3935,-1.64235 3.88936,-3.29519 1.49586,-1.65285 3.43102,-4.08236 5.03318,-6.23057 1.60216,-2.14821 2.92148,-4.08894 4.62546,-6.87787 1.70398,-2.78892 3.79253,-6.42587 5.61105,-9.37872 1.81852,-2.95285 3.36693,-5.22144 4.46524,-6.96794 1.09832,-1.7465 1.74649,-2.97083 2.36748,-4.66583 0.621,-1.69501 1.24234,-3.96108 1.75108,-5.76034 0.50874,-1.79926 0.90484,-3.1316 1.39098,-5.63434 0.48614,-2.50273 1.06229,-6.17569 1.46911,-8.63686 0.40682,-2.46116 0.6443,-3.71041 0.69938,-4.69154 0.0551,-0.98113 -0.0722,-1.69408 -0.5815,-2.97997 -0.50927,-1.2859 -1.40045,-3.14466 -1.90972,-4.50694 -0.50926,-1.36228 -0.63657,-2.228 -0.50925,-3.20834 0.12732,-0.98033 0.50926,-2.07522 1.12,-2.95061 0.61074,-0.8754 1.41318,-1.50231 1.91627,-2.15953 0.50308,-0.65722 0.70679,-1.34471 0.83145,-1.90517 0.12466,-0.56047 0.17824,-1.06944 0.19229,-1.76954 0.014,-0.7001 -0.0114,-1.59129 0.0412,-2.79292 0.0526,-1.20164 0.18318,-2.71366 0.44654,-4.29792 0.26337,-1.58425 0.65947,-3.2407 1.16362,-5.09523 0.50414,-1.85453 1.11631,-3.90709 1.57131,-5.54655 0.45499,-1.63946 0.7652,-2.91679 0.96532,-4.37472 0.20013,-1.45792 0.29015,-3.09634 0.11009,-4.64929 -0.18005,-1.55295 -0.63017,-3.02034 -1.31543,-4.74593 -0.68526,-1.72559 -1.61594,-3.73152 -2.08579,-5.01809 -0.46985,-1.28657 -0.47885,-1.85371 -0.29429,-2.5064 0.18455,-0.65269 0.56265,-1.39088 1.30987,-2.30915 0.74722,-0.91827 1.86351,-2.01655 2.66474,-2.92581 0.80123,-0.90927 1.28736,-1.62945 1.64746,-2.35867 0.3601,-0.72921 0.59416,-1.4674 0.67519,-2.30464 0.081,-0.83725 0.009,-1.7735 -0.0613,-2.6019 -0.0703,-0.82839 -0.14404,-1.60243 -0.65393,-3.42623 -0.5099,-1.8238 -1.45593,-4.69723 -2.71832,-7.73817 -1.26239,-3.040939 -2.84106,-6.249207 -4.20334,-8.782791 -1.36228,-2.533584 -2.50809,-4.392342 -3.6794,-5.996524 -1.17131,-1.604181 -2.36804,-2.953688 -3.46296,-3.895821 -1.09491,-0.942134 -2.08796,-1.476852 -3.59022,-2.646792 -1.50225,-1.16994 -3.47567,-2.940953 -4.88254,-4.042915 -1.40687,-1.101963 -2.24713,-1.534825 -3.20201,-1.802188 -0.95487,-0.267363 -2.0243,-0.369213 -2.76102,-0.770268 -0.73671,-0.401054 -1.10763,-1.043976 -1.95514,-1.772857 -0.84751,-0.728882 -2.17156,-1.543682 -3.66116,-2.091138 -1.4896,-0.547456 -3.14466,-0.827543 -4.79977,-0.967589 -1.65511,-0.140046 -3.31016,-0.140046 -4.48147,0.01273 -1.1713,0.152781 -1.85879,0.458332 -2.38078,0.802084 -0.52199,0.343752 -0.87847,0.725693 -1.09491,1.133106 -0.21643,0.407412 -0.29282,0.840274 -0.76825,1.133867 -0.47544,0.293594 -1.3368,0.4456 -2.31495,0.776239 -0.97816,0.33064 -2.07306,0.839896 -3.09193,1.466696 -1.01886,0.626801 -1.998827,1.400454 -2.883499,2.067384 -0.884672,0.66693 -1.674007,1.227103 -2.679807,1.850953 -1.0058,0.62385 -2.227998,1.311336 -3.599438,1.670661 -1.37144,0.359325 -2.89204,0.390474 -4.102489,1.054243 -1.210449,0.66377 -2.110682,1.960107 -3.237823,2.810277 -1.127141,0.850169 -2.481118,1.25413 -4.170293,2.025859 -1.689176,0.77173 -3.713439,1.911175 -5.170043,2.532922 -1.456604,0.621747 -2.345469,0.725769 -3.294062,0.683253 -0.948594,-0.04252 -1.956855,-0.231566 -2.780593,-0.330595 -0.823737,-0.09903 -1.462902,-0.108032 -1.782491,-0.112533 -0.319589,-0.0045 -0.319576,-0.0045 -1.111798,1.399896 z"
       id="path1"
       inkscape:path-effect="#path-effect1"
       inkscape:original-d="m 67.194786,85.55992 c -1.584444,2.808785 -3.168888,5.61757 -4.753329,8.426355 -2.160648,3.745121 -4.321231,7.490135 -6.481813,11.235145 -1.872562,3.81714 -3.745047,7.41807 -5.61757,11.01908 -1.224367,2.80884 -2.448697,5.6176 -3.673027,8.42635 -0.216064,1.6565 -0.432121,3.52899 -0.648182,5.40151 0.144045,1.87256 0.288081,3.74505 0.432123,5.61757 0.432128,1.29639 0.86424,2.59273 1.29636,3.88909 0.792239,1.36841 1.584444,2.73676 2.376665,4.10515 0.432131,0.28808 0.864243,0.57616 1.296363,0.86424 1.152345,1.72852 2.304645,3.45697 3.456966,5.18545 0.144042,0.14404 0.288081,0.28808 0.432121,0.43212 0.216064,0.21606 0.43212,0.43212 0.648181,0.64818 1.512454,0.14404 3.024862,0.28808 4.537268,0.43212 0.360109,1e-5 0.720201,0.21606 1.080302,0.43212 0.144044,1.00831 0.288084,2.01658 0.432123,3.02485 0,0.36011 0,0.7202 0,1.0803 0.648192,1.08032 1.29636,1.94454 1.944542,2.80878 0.648194,1.08033 1.296363,2.16061 1.944544,3.24091 0.144042,1.87256 0.288081,3.74505 0.43212,5.61757 0.450014,2.54556 0.900012,5.09104 1.350013,7.63652 0.662048,2.03708 1.324073,4.22685 1.986111,6.41667 0.763902,1.27317 1.527778,2.54629 2.291664,3.81944 1.069467,1.12039 2.138889,2.24074 3.208335,3.36111 1.375027,1.52781 2.75,3.05556 4.125,4.58334 1.069467,1.57873 2.138899,3.15742 3.208332,4.73611 1.069467,1.93522 2.138889,4.02315 3.208335,6.11111 0.662051,2.34264 1.324081,4.68521 1.98611,7.02778 0.203708,2.24078 0.407409,4.63426 0.611111,7.02777 0.07639,0.21644 0.152779,0.43288 0.229166,0.64931 -0.02545,3.76859 -0.05092,7.53704 -0.07639,11.30556 1.285904,2.50815 2.571757,5.0162 3.857638,7.5243 1.394031,1.85243 2.788004,3.70477 4.182007,5.55716 1.359407,0.88227 2.71876,1.76449 4.078145,2.64674 1.0173,0.20706 2.03457,0.41412 3.05185,0.62118 1.30922,-0.0389 2.61839,-0.0778 3.92759,-0.11675 1.17131,-0.38195 2.34259,-0.76389 3.51388,-1.14583 1.65513,-0.68751 3.31021,-1.37501 4.96528,-2.0625 1.044,-0.81483 2.08796,-1.70602 3.13194,-2.59722 1.93523,-2.42958 3.8704,-4.85908 5.80556,-7.28859 1.30263,-1.84416 2.60521,-3.79627 3.90781,-5.74842 2.08863,-3.63708 4.17717,-7.27403 6.26575,-10.91105 1.54847,-2.26867 3.09687,-4.53727 4.6453,-6.8059 0.6482,-1.22437 1.29637,-2.4487 1.94454,-3.67303 0.61219,-2.16064 1.22435,-4.42923 1.83652,-6.69787 0.39612,-1.3324 0.79222,-2.66474 1.18833,-3.99712 0.57617,-3.67309 1.15232,-7.34605 1.72848,-11.01908 0.23749,-1.2493 0.47496,-2.49855 0.71244,-3.74783 -0.12732,-0.71298 -0.25463,-1.42593 -0.38195,-2.13889 -0.89122,-1.85883 -1.7824,-3.71759 -2.67361,-5.57639 -0.12732,-0.86576 -0.25463,-1.73148 -0.38194,-2.59722 0.38195,-1.09493 0.76389,-2.18982 1.14583,-3.28472 0.81483,-0.68751 1.62963,-1.29861 2.44444,-1.90972 0.20371,-0.68752 0.40741,-1.37501 0.61112,-2.0625 0.0509,-0.43288 0.10185,-0.94213 0.15277,-1.45139 -0.0255,-0.89122 -0.0509,-1.78241 -0.0764,-2.67361 0.13061,-1.51207 0.26122,-3.02409 0.39183,-4.53611 0.39612,-1.65649 0.79222,-3.31294 1.18833,-4.96939 0.61218,-2.05261 1.22435,-4.10517 1.83651,-6.15772 0.30609,-1.22437 0.61217,-2.5027 0.91826,-3.78106 0.09,-1.63849 0.18005,-3.27691 0.27007,-4.91537 -0.45013,-1.46744 -0.90025,-2.93483 -1.35037,-4.40223 -0.92728,-1.98059 -1.85452,-3.98811 -2.78178,-5.99568 -0.009,-0.56717 -0.018,-1.13431 -0.027,-1.70147 0.37812,-0.73822 0.75621,-1.47641 1.13432,-2.21462 1.11633,-1.09833 2.23262,-2.19661 3.34894,-3.29492 0.48614,-0.72022 0.97227,-1.4404 1.4584,-2.1606 0.23407,-0.73823 0.46813,-1.47642 0.7022,-2.21463 -0.072,-0.93628 -0.14404,-1.87253 -0.21606,-2.80878 -0.072,-0.72022 -0.14404,-1.49442 -0.21606,-2.26864 -0.94607,-2.87354 -1.8921,-5.74697 -2.83814,-8.620449 -1.57874,-3.208398 -3.15741,-6.416667 -4.73611,-9.625001 -1.14586,-1.858833 -2.29167,-3.717592 -3.4375,-5.576388 -1.19679,-1.349565 -2.39352,-2.699075 -3.59028,-4.048612 -0.99307,-0.534733 -1.98612,-1.069451 -2.97917,-1.604166 -1.98615,-1.833369 -3.97222,-3.590279 -5.95833,-5.347223 -0.84029,-0.432877 -1.68055,-0.865741 -2.52083,-1.29861 -1.06947,-0.101854 -2.1389,-0.203705 -3.20834,-0.305557 -0.38195,-0.712975 -0.76389,-1.349536 -1.14583,-1.98611 -1.3241,-0.814832 -2.64815,-1.62963 -3.97222,-2.444446 -1.65513,-0.280096 -3.31019,-0.560184 -4.96528,-0.840277 -1.65513,0 -3.31018,0 -4.96528,0 -0.68751,0.305562 -1.375,0.611111 -2.0625,0.916668 -0.35648,0.381952 -0.71296,0.763889 -1.06944,1.145833 -0.0764,0.43288 -0.15278,0.865743 -0.22917,1.29861 -0.86576,0.203708 -1.73148,0.33102 -2.59722,0.458335 -1.09493,0.509267 -2.18983,1.018524 -3.28472,1.527778 -0.96761,0.712978 -1.935191,1.502315 -2.902783,2.291665 -0.789368,0.560197 -1.578703,1.12037 -2.368055,1.680556 -1.222248,0.687515 -2.444446,1.375 -3.666667,2.062499 -1.520659,0.03115 -3.041259,0.0623 -4.561888,0.09345 -0.900269,1.296389 -1.800503,2.592726 -2.700753,3.889089 -1.354031,0.403976 -2.708008,0.807937 -4.062013,1.211905 -2.024345,1.139492 -4.048609,2.278936 -6.072915,3.418404 -0.888902,0.104026 -1.777767,0.208047 -2.666653,0.312073 -1.008301,-0.189058 -2.016562,-0.378108 -3.024844,-0.567161 -0.639193,-0.009 -1.278358,-0.01802 -1.917536,-0.02701 z" /></g></svg>
